<svg version="1.2" xmlns="http://www.w3.org/2000/svg" viewBox="0 0 378 344" width="378" height="344"><defs><linearGradient id="P" gradientUnits="userSpaceOnUse"/><linearGradient id="g1" x2="1" href="#P" gradientTransform="matrix(870.8,-633.107,889.136,1222.952,-507.501,703.718)"><stop stop-color="#69d2e3"/><stop offset=".28" stop-color="#0147ba"/><stop offset=".67" stop-color="#89abe4"/><stop offset=".89" stop-color="#9bcbea"/><stop offset="1" stop-color="#0147ba"/></linearGradient><linearGradient id="g2" x2="1" href="#P" gradientTransform="matrix(1041.677,-757.342,1298.507,1786.017,-640.764,779.625)"><stop stop-color="#69d2e3"/><stop offset=".28" stop-color="#0147ba"/><stop offset=".67" stop-color="#89abe4"/><stop offset=".89" stop-color="#9bcbea"/><stop offset="1" stop-color="#0147ba"/></linearGradient><linearGradient id="g3" x2="1" href="#P" gradientTransform="matrix(1329.883,-966.879,2181.874,3001.034,-877.195,913.78)"><stop stop-color="#69d2e3"/><stop offset=".28" stop-color="#0147ba"/><stop offset=".67" stop-color="#89abe4"/><stop offset=".89" stop-color="#9bcbea"/><stop offset="1" stop-color="#0147ba"/></linearGradient><linearGradient id="g4" x2="1" href="#P" gradientTransform="matrix(1623.726,-1180.515,3333.329,4584.789,-1147.363,1062.808)"><stop stop-color="#69d2e3"/><stop offset=".28" stop-color="#0147ba"/><stop offset=".67" stop-color="#89abe4"/><stop offset=".89" stop-color="#9bcbea"/><stop offset="1" stop-color="#0147ba"/></linearGradient><linearGradient id="g5" x2="1" href="#P" gradientTransform="matrix(1727.234,-1255.77,3805.166,5233.772,-1290.436,1130.281)"><stop stop-color="#69d2e3"/><stop offset=".28" stop-color="#0147ba"/><stop offset=".67" stop-color="#89abe4"/><stop offset=".89" stop-color="#9bcbea"/><stop offset="1" stop-color="#0147ba"/></linearGradient><linearGradient id="g6" x2="1" href="#P" gradientTransform="matrix(1686.345,-1226.042,3569.875,4910.144,-1322.829,1117.346)"><stop stop-color="#69d2e3"/><stop offset=".28" stop-color="#0147ba"/><stop offset=".67" stop-color="#89abe4"/><stop offset=".89" stop-color="#9bcbea"/><stop offset="1" stop-color="#0147ba"/></linearGradient><linearGradient id="g7" x2="1" href="#P" gradientTransform="matrix(1628.509,-1183.992,3277.152,4507.522,-1339.387,1093.202)"><stop stop-color="#69d2e3"/><stop offset=".28" stop-color="#0147ba"/><stop offset=".67" stop-color="#89abe4"/><stop offset=".89" stop-color="#9bcbea"/><stop offset="1" stop-color="#0147ba"/></linearGradient><linearGradient id="g8" x2="1" href="#P" gradientTransform="matrix(1553.367,-1129.361,2931.28,4031.796,-1337.518,1056.375)"><stop stop-color="#69d2e3"/><stop offset=".28" stop-color="#0147ba"/><stop offset=".67" stop-color="#89abe4"/><stop offset=".89" stop-color="#9bcbea"/><stop offset="1" stop-color="#0147ba"/></linearGradient><linearGradient id="g9" x2="1" href="#P" gradientTransform="matrix(1549.783,-1126.755,2925.027,4023.195,-1389.257,1061.892)"><stop stop-color="#69d2e3"/><stop offset=".28" stop-color="#0147ba"/><stop offset=".67" stop-color="#89abe4"/><stop offset=".89" stop-color="#9bcbea"/><stop offset="1" stop-color="#0147ba"/></linearGradient><linearGradient id="g10" x2="1" href="#P" gradientTransform="matrix(1552.981,-1129.081,2974.225,4090.864,-1446.43,1075.065)"><stop stop-color="#69d2e3"/><stop offset=".28" stop-color="#0147ba"/><stop offset=".67" stop-color="#89abe4"/><stop offset=".89" stop-color="#9bcbea"/><stop offset="1" stop-color="#0147ba"/></linearGradient></defs><style>.a{fill:url(#g1)}.b{fill:url(#g2)}.c{fill:url(#g3)}.d{fill:url(#g4)}.e{fill:url(#g5)}.f{fill:url(#g6)}.g{fill:url(#g7)}.h{fill:url(#g8)}.i{fill:url(#g9)}.j{fill:url(#g10)}</style><path class="a" d="m49.2 344h-25.9c-7.7-3.6-15.5-6.9-23.3-10v-13.2c16.7 7.2 32.8 15.5 49.2 23.2z"/><path class="b" d="m105 344h-26c-27.3-11.2-53-24.1-79-37.4v-19.7c10 6.8 19.4 14.7 30.1 21.4 21.9 13.6 45 21.5 67.9 31.9q3.8 1.7 7 3.8z"/><path class="c" d="m145.8 344h-19.9c-3.9-4.2-8.9-7.9-15.2-10.8-37-16.9-74.8-32.9-104.8-61.2q-2.8-2.7-5.9-4.9v-20.5c14.5 8.6 27.4 21.2 38.9 33.5 23.5 25.2 58.3 33.1 89.2 48.1 8.3 4.1 14 9.5 17.7 15.8z"/><path class="d" d="m179.7 344h-17.7c-12.6-21.9-44.1-33.8-68.3-43.8-28.8-11.3-48.1-36.6-70-57.5-7.2-7-14.8-14.7-23.7-19.3v-20.1c3.1 0.6 6.1 1.5 9.1 2.8 9.7 3.5 18 9.5 24.2 18.2 10.4 13.9 18.5 28.7 30.3 40.7 23.6 25.2 58.4 33.1 89 47.9 12.8 6.3 24.4 17 27.1 31.1z"/><path class="e" d="m209.7 344h-16c-2-16.8-10.2-31.8-28.5-39.2-36.2-15-76-24.1-99.9-59.1-8.9-13.4-14.3-27.2-23.5-40.3-4.5-6.1-9.9-10.3-16.2-13.9-8.2-4.9-16.8-6.2-25.6-5.8v-16.3c10.2-1 20.4-0.4 30.9 2.7 28.4 9.5 30.9 43.4 46.8 65.8 25 36 66.6 44.9 103.9 60.4 20.4 8.5 27.6 26.3 28.1 45.7z"/><path class="f" d="m243 344h-16.8c1-22.9-7-45.3-30.9-54.3-38.6-14.2-82.1-22.8-105.3-61.2-9.7-15.8-17.5-31.9-25.1-48.8-2.2-5.3-4.9-10.5-8.1-15.3-5.4-9.2-14.1-12.7-23.7-13.4-9.7-0.6-20.3 1.5-29.7 3.6q-1.7 0.4-3.4 0.8v-14.5q8.4-2.1 16.8-4.2c8.7-2.2 18.3-4.1 27.3-3.5 9 0.6 17.3 3.8 23.3 11.8 14.8 19.7 15.1 45.7 27 67.3 24.8 44.8 76.5 53.5 120.4 70.8 24.1 9.6 32.7 35.9 28.2 60.9z"/><path class="g" d="m280 312.4c-0.5 11-2.6 21.4-5.4 31.6h-15.1c5-27-2.1-56.9-29.1-68.7-30.4-13-62.5-17.1-91.5-36.2-32.3-20.6-43.8-56-50.2-90.1-2.5-11.4-6.9-23-17.3-27.4-23.5-11-47.2-4-71.4 4v-14.4c15.2-3.8 30.4-8.1 45.8-12.1 12.1-3.3 24.9-3.4 36 2.8 12 7 16.4 19.2 18.9 32.7 5.9 28.8 10.4 60 32.1 81.8 30.8 31.2 76.1 34.7 115.5 50.2 18.9 7.5 33.1 25.1 31.7 45.8z"/><path class="h" d="m313.2 314.5c-2.5 10.1-5.5 19.8-8.5 29.5h-15q2.6-7.3 5.1-14.5c12.6-36.5-6-71.5-45.9-78.5-58.3-10-123.7-31.6-131.8-96.9-1.8-11.9-2.1-25.1-4.8-37.3-2.6-12.1-7.6-23.2-18.2-31.2-12.2-9.4-28.4-7.4-42.7-3.5-17.1 4.8-34.3 10.3-51.4 15v-14c35-10.9 70.3-33.9 103.5-14.5 12.3 7 17.8 18.5 20.6 31.4 2.8 13 2.8 27.4 4.7 40 2.6 44.1 35.3 77.7 78.6 88.6 31.3 7.6 62.4 10.2 90.6 27.4 20.3 12.6 20.5 37.5 15.2 58.5z"/><path class="i" d="m335.1 344h-15.6c2.8-10 5.8-20.1 8.5-30.2 5.1-19.7 8.6-42.5-5.6-59.6-11-13.4-28.5-16.4-44.5-21-34.8-10-70.3-11.7-101.8-32.6-28-18.6-33.4-51.1-36.1-81-1.2-10.6-3.1-21.1-6.3-31.3-3.1-10.2-7.4-20.2-13.3-30-10.8-17.9-34.6-15.5-53.1-10.6-22.7 6.2-45 14.3-67.3 19.9v-16.2c24.6-4.9 48.6-12.9 74-19.6 20.6-5.5 45-5.8 58.7 13.4 6.6 9.1 10.2 18.9 12.6 29.1 2.3 10.2 3.2 20.8 4.4 31.7-2.2 47.2 25.8 90.9 74.5 102.8 40.6 10 90.3 3.6 115.1 41.5 19.3 29.3 6.1 61.9-4.2 93.7z"/><path class="j" d="m367.4 336.8q-0.6 3.7-1.2 7.2h-15.9c3.3-15.1 7.1-30.4 10.4-46.5 4-21.2 5.6-44.3-9.4-60-29.9-31.5-76.8-28.6-117.7-38.8-44.6-10.7-73.6-49.1-72.5-93.1-1.6-15.2-2.4-31.7-6.3-46.5-3.9-14.9-10.9-28-25-36.6-34.7-21.4-72.3 1-108.5 10.1q-10.7 2.8-21.3 4.2v-15.9q1.8-0.1 3.7-0.3c38.9-4.4 72.3-23.6 112.1-20.3 39 3.6 50 44.9 54 78.2 1.5 11.8 2.5 23.7 3.8 35.4 2.8 36.6 31.9 63.1 66.2 73.6 45.5 14.1 109 6.6 131.7 54.6 14.1 29.5 0.9 63.3-4.1 94.7z"/></svg>